<mxfile host="app.diagrams.net" modified="2023-07-27T01:58:52.731Z" agent="Mozilla/5.0 (Windows NT 10.0; Win64; x64) AppleWebKit/537.36 (KHTML, like Gecko) Chrome/115.0.0.0 Safari/537.36" etag="HCYB4CmQAO0ABhcaw-3-" version="21.6.5" type="device">
  <diagram name="Page-1" id="2ca16b54-16f6-2749-3443-fa8db7711227">
    <mxGraphModel dx="1075" dy="481" grid="1" gridSize="10" guides="1" tooltips="1" connect="1" arrows="1" fold="1" page="1" pageScale="1" pageWidth="1100" pageHeight="850" background="none" math="0" shadow="0">
      <root>
        <mxCell id="0" />
        <mxCell id="1" parent="0" />
        <mxCell id="2ed32ef02a7f4228-1" value="&lt;div style=&quot;box-sizing:border-box;width:100%;background:#e4e4e4;padding:2px;&quot;&gt;Personas&lt;/div&gt;&lt;table style=&quot;width:100%;font-size:1em;&quot; cellpadding=&quot;2&quot; cellspacing=&quot;0&quot;&gt;&lt;tbody&gt;&lt;tr&gt;&lt;td&gt;&amp;nbsp; &amp;nbsp; &amp;nbsp; &amp;nbsp;ID personas&lt;br&gt;&amp;nbsp; &amp;nbsp; &amp;nbsp; &amp;nbsp;Nombre&lt;br style=&quot;border-color: var(--border-color);&quot;&gt;&amp;nbsp; &amp;nbsp; &amp;nbsp; &amp;nbsp;Apellidos&lt;br style=&quot;border-color: var(--border-color);&quot;&gt;&amp;nbsp; &amp;nbsp; &amp;nbsp; &amp;nbsp;Edad&lt;br style=&quot;border-color: var(--border-color);&quot;&gt;&amp;nbsp; &amp;nbsp; &amp;nbsp; &amp;nbsp;Cédula&lt;br&gt;&lt;br&gt;&lt;/td&gt;&lt;td&gt;&lt;br&gt;&lt;/td&gt;&lt;/tr&gt;&lt;tr&gt;&lt;td&gt;&lt;br&gt;&lt;/td&gt;&lt;td&gt;&lt;br&gt;&lt;/td&gt;&lt;/tr&gt;&lt;tr&gt;&lt;td&gt;&lt;/td&gt;&lt;td&gt;&lt;br&gt;&lt;/td&gt;&lt;/tr&gt;&lt;/tbody&gt;&lt;/table&gt;" style="verticalAlign=top;align=left;overflow=fill;html=1;rounded=0;shadow=0;comic=0;labelBackgroundColor=none;strokeWidth=1;fontFamily=Verdana;fontSize=12" parent="1" vertex="1">
          <mxGeometry x="140" y="240" width="180" height="100" as="geometry" />
        </mxCell>
        <mxCell id="zlzvbHHpBnpUeQz4sAAR-2" value="&lt;div style=&quot;box-sizing:border-box;width:100%;background:#e4e4e4;padding:2px;&quot;&gt;Animales&lt;/div&gt;&lt;table style=&quot;width:100%;font-size:1em;&quot; cellpadding=&quot;2&quot; cellspacing=&quot;0&quot;&gt;&lt;tbody&gt;&lt;tr&gt;&lt;td&gt;&lt;br&gt;&lt;/td&gt;&lt;td&gt;&amp;nbsp; &amp;nbsp; &amp;nbsp;ID animales&lt;/td&gt;&lt;/tr&gt;&lt;tr&gt;&lt;td&gt;&lt;br&gt;&lt;/td&gt;&lt;td&gt;&amp;nbsp; &amp;nbsp; &amp;nbsp;Nombre&lt;br&gt;&amp;nbsp; &amp;nbsp; &amp;nbsp;Genero&lt;br&gt;&amp;nbsp; &amp;nbsp; &amp;nbsp;Raza&lt;/td&gt;&lt;/tr&gt;&lt;tr&gt;&lt;td&gt;&lt;/td&gt;&lt;td&gt;&lt;br&gt;&lt;/td&gt;&lt;/tr&gt;&lt;/tbody&gt;&lt;/table&gt;" style="verticalAlign=top;align=left;overflow=fill;html=1;rounded=0;shadow=0;comic=0;labelBackgroundColor=none;strokeWidth=1;fontFamily=Verdana;fontSize=12" parent="1" vertex="1">
          <mxGeometry x="440" y="240" width="180" height="100" as="geometry" />
        </mxCell>
        <mxCell id="zlzvbHHpBnpUeQz4sAAR-12" style="edgeStyle=orthogonalEdgeStyle;rounded=0;orthogonalLoop=1;jettySize=auto;html=1;entryX=0.338;entryY=0.016;entryDx=0;entryDy=0;entryPerimeter=0;" parent="1" source="zlzvbHHpBnpUeQz4sAAR-7" target="2ed32ef02a7f4228-1" edge="1">
          <mxGeometry relative="1" as="geometry">
            <mxPoint x="210" y="210" as="targetPoint" />
            <Array as="points">
              <mxPoint x="200" y="110" />
              <mxPoint x="200" y="210" />
            </Array>
          </mxGeometry>
        </mxCell>
        <mxCell id="zlzvbHHpBnpUeQz4sAAR-13" style="edgeStyle=orthogonalEdgeStyle;rounded=0;orthogonalLoop=1;jettySize=auto;html=1;exitX=1;exitY=0.5;exitDx=0;exitDy=0;" parent="1" source="zlzvbHHpBnpUeQz4sAAR-7" edge="1">
          <mxGeometry relative="1" as="geometry">
            <mxPoint x="560" y="240" as="targetPoint" />
            <Array as="points">
              <mxPoint x="560" y="110" />
              <mxPoint x="560" y="240" />
            </Array>
          </mxGeometry>
        </mxCell>
        <mxCell id="zlzvbHHpBnpUeQz4sAAR-14" value="Text" style="edgeLabel;html=1;align=center;verticalAlign=middle;resizable=0;points=[];" parent="zlzvbHHpBnpUeQz4sAAR-13" vertex="1" connectable="0">
          <mxGeometry x="-0.4027" y="-4" relative="1" as="geometry">
            <mxPoint x="307" y="-24" as="offset" />
          </mxGeometry>
        </mxCell>
        <mxCell id="zlzvbHHpBnpUeQz4sAAR-7" value="&lt;div style=&quot;box-sizing:border-box;width:100%;background:#e4e4e4;padding:2px;&quot;&gt;Veterinaria&lt;/div&gt;&lt;table style=&quot;width:100%;font-size:1em;&quot; cellpadding=&quot;2&quot; cellspacing=&quot;0&quot;&gt;&lt;tbody&gt;&lt;tr&gt;&lt;td&gt;&lt;br&gt;&lt;/td&gt;&lt;td&gt;&amp;nbsp; &amp;nbsp; ID veterinaria&lt;/td&gt;&lt;/tr&gt;&lt;tr&gt;&lt;td&gt;&lt;br&gt;&lt;/td&gt;&lt;td&gt;&amp;nbsp; &amp;nbsp; Nombre&lt;br&gt;&amp;nbsp; &amp;nbsp; Dirección&lt;br&gt;&amp;nbsp; &amp;nbsp; Teléfono&lt;/td&gt;&lt;/tr&gt;&lt;tr&gt;&lt;td&gt;&lt;/td&gt;&lt;td&gt;&amp;nbsp; &amp;nbsp; ID animales1&lt;br&gt;&amp;nbsp; &amp;nbsp; ID Personas1&lt;br&gt;&amp;nbsp; &amp;nbsp;&amp;nbsp;&lt;/td&gt;&lt;/tr&gt;&lt;/tbody&gt;&lt;/table&gt;" style="verticalAlign=top;align=left;overflow=fill;html=1;rounded=0;shadow=0;comic=0;labelBackgroundColor=none;strokeWidth=1;fontFamily=Verdana;fontSize=12" parent="1" vertex="1">
          <mxGeometry x="280" y="61" width="200" height="140" as="geometry" />
        </mxCell>
        <mxCell id="zlzvbHHpBnpUeQz4sAAR-15" value="1:N" style="rhombus;whiteSpace=wrap;html=1;" parent="1" vertex="1">
          <mxGeometry x="180" y="110" width="40" height="40" as="geometry" />
        </mxCell>
        <mxCell id="zlzvbHHpBnpUeQz4sAAR-19" value="1" style="text;html=1;align=center;verticalAlign=middle;resizable=0;points=[];autosize=1;strokeColor=none;fillColor=none;" parent="1" vertex="1">
          <mxGeometry x="480" y="80" width="30" height="30" as="geometry" />
        </mxCell>
        <mxCell id="zlzvbHHpBnpUeQz4sAAR-20" value="N" style="text;html=1;align=center;verticalAlign=middle;resizable=0;points=[];autosize=1;strokeColor=none;fillColor=none;" parent="1" vertex="1">
          <mxGeometry x="560" y="210" width="30" height="30" as="geometry" />
        </mxCell>
        <mxCell id="zlzvbHHpBnpUeQz4sAAR-21" value="1" style="text;html=1;align=center;verticalAlign=middle;resizable=0;points=[];autosize=1;strokeColor=none;fillColor=none;" parent="1" vertex="1">
          <mxGeometry x="530" y="210" width="30" height="30" as="geometry" />
        </mxCell>
        <mxCell id="zlzvbHHpBnpUeQz4sAAR-22" value="1" style="text;html=1;align=center;verticalAlign=middle;resizable=0;points=[];autosize=1;strokeColor=none;fillColor=none;" parent="1" vertex="1">
          <mxGeometry x="480" y="120" width="30" height="30" as="geometry" />
        </mxCell>
        <mxCell id="zlzvbHHpBnpUeQz4sAAR-24" value="" style="ellipse;whiteSpace=wrap;html=1;fillColor=#000000;" parent="1" vertex="1">
          <mxGeometry x="285" y="81" width="20" height="12.5" as="geometry" />
        </mxCell>
        <mxCell id="zlzvbHHpBnpUeQz4sAAR-25" value="" style="ellipse;whiteSpace=wrap;html=1;" parent="1" vertex="1">
          <mxGeometry x="285" y="97.5" width="20" height="12.5" as="geometry" />
        </mxCell>
        <mxCell id="zlzvbHHpBnpUeQz4sAAR-26" value="" style="ellipse;whiteSpace=wrap;html=1;" parent="1" vertex="1">
          <mxGeometry x="285" y="114" width="20" height="12.5" as="geometry" />
        </mxCell>
        <mxCell id="zlzvbHHpBnpUeQz4sAAR-27" value="" style="ellipse;whiteSpace=wrap;html=1;" parent="1" vertex="1">
          <mxGeometry x="285" y="129.75" width="20" height="12.5" as="geometry" />
        </mxCell>
        <mxCell id="zlzvbHHpBnpUeQz4sAAR-28" value="" style="ellipse;whiteSpace=wrap;html=1;fillColor=#000000;" parent="1" vertex="1">
          <mxGeometry x="150" y="261.25" width="20" height="12.5" as="geometry" />
        </mxCell>
        <mxCell id="zlzvbHHpBnpUeQz4sAAR-29" value="" style="ellipse;whiteSpace=wrap;html=1;" parent="1" vertex="1">
          <mxGeometry x="150" y="304.75" width="20" height="12.5" as="geometry" />
        </mxCell>
        <mxCell id="zlzvbHHpBnpUeQz4sAAR-30" value="" style="ellipse;whiteSpace=wrap;html=1;" parent="1" vertex="1">
          <mxGeometry x="150" y="275.25" width="20" height="12.5" as="geometry" />
        </mxCell>
        <mxCell id="zlzvbHHpBnpUeQz4sAAR-31" value="" style="ellipse;whiteSpace=wrap;html=1;" parent="1" vertex="1">
          <mxGeometry x="150" y="289.75" width="20" height="12.5" as="geometry" />
        </mxCell>
        <mxCell id="zlzvbHHpBnpUeQz4sAAR-32" value="" style="ellipse;whiteSpace=wrap;html=1;fillColor=#000000;" parent="1" vertex="1">
          <mxGeometry x="450" y="261.25" width="20" height="12.5" as="geometry" />
        </mxCell>
        <mxCell id="zlzvbHHpBnpUeQz4sAAR-33" value="" style="ellipse;whiteSpace=wrap;html=1;" parent="1" vertex="1">
          <mxGeometry x="450" y="277.75" width="20" height="12.5" as="geometry" />
        </mxCell>
        <mxCell id="zlzvbHHpBnpUeQz4sAAR-34" value="" style="ellipse;whiteSpace=wrap;html=1;" parent="1" vertex="1">
          <mxGeometry x="450" y="294.25" width="20" height="12.5" as="geometry" />
        </mxCell>
        <mxCell id="zlzvbHHpBnpUeQz4sAAR-35" value="" style="ellipse;whiteSpace=wrap;html=1;" parent="1" vertex="1">
          <mxGeometry x="450" y="310" width="20" height="12.5" as="geometry" />
        </mxCell>
        <mxCell id="zlzvbHHpBnpUeQz4sAAR-36" value="1" style="text;html=1;align=center;verticalAlign=middle;resizable=0;points=[];autosize=1;strokeColor=none;fillColor=none;" parent="1" vertex="1">
          <mxGeometry x="250" y="81" width="30" height="30" as="geometry" />
        </mxCell>
        <mxCell id="zlzvbHHpBnpUeQz4sAAR-37" value="1" style="text;html=1;align=center;verticalAlign=middle;resizable=0;points=[];autosize=1;strokeColor=none;fillColor=none;" parent="1" vertex="1">
          <mxGeometry x="250" y="121" width="30" height="30" as="geometry" />
        </mxCell>
        <mxCell id="zlzvbHHpBnpUeQz4sAAR-38" value="N" style="text;html=1;align=center;verticalAlign=middle;resizable=0;points=[];autosize=1;strokeColor=none;fillColor=none;" parent="1" vertex="1">
          <mxGeometry x="200" y="210" width="30" height="30" as="geometry" />
        </mxCell>
        <mxCell id="zlzvbHHpBnpUeQz4sAAR-39" value="1" style="text;html=1;align=center;verticalAlign=middle;resizable=0;points=[];autosize=1;strokeColor=none;fillColor=none;" parent="1" vertex="1">
          <mxGeometry x="170" y="210" width="30" height="30" as="geometry" />
        </mxCell>
        <mxCell id="zlzvbHHpBnpUeQz4sAAR-48" value="1:N" style="rhombus;whiteSpace=wrap;html=1;" parent="1" vertex="1">
          <mxGeometry x="540" y="111" width="40" height="40" as="geometry" />
        </mxCell>
        <mxCell id="zlzvbHHpBnpUeQz4sAAR-52" value="" style="ellipse;whiteSpace=wrap;html=1;" parent="1" vertex="1">
          <mxGeometry x="285" y="147" width="20" height="12.5" as="geometry" />
        </mxCell>
        <mxCell id="zlzvbHHpBnpUeQz4sAAR-62" value="" style="shape=stencil(lVrbcls3DPwavXJ4vzyn6X9kJk7tqWtnHKdt/j7gaCgbS2lx/CbLWB0ABJcL8JzSpx/3X77fnaL/8fry/Pfdfw9fX+9P6Y9TjA9P93cvD6/y6ZQ+n9Knb88vd3+9PP98+nr++/uXaTk//fP87/yF/8+4OlwfExX9r/M33o3zF3+e7R8fnt7ZN+9iU/bRRU/sg+tV2SfXGrFPLnZlX5xPxD674pV9dbEQ++JKVvbNZWZfXdb23VVm31wMyl4SzO279j8EFwigB1yAEF0mK9aL6wBIbtTbgOFXhBdAcZkBJKc65lBXVV0HSJJ0UYROYxBA1k+QMmVZGuKALiOpU98pIOp1jtkFUtgC8DoGqVSaVnlC0oDmaqSAqrem1JJnLjUX9Eonv3bTLUCJGhC4Sw1dSsl5sp0F0AAgG5ZlqS16uACqC4ZLegMl+QkedATAcIUVn6yDrqUcVt5uAYAzcnKJl0bSLuWylvImQGcp18WztwABXOquEV6VPd00CRTvWqCArF0qceXtFiDpDVQyX4eyPL4AKj17ZtAAkNLgC1cAMFzgrDE0L1W/yvFW8XkARPMJeuFqWtR2FHA58o661Di3NpcA0F0xSEDTzFQdbB36ot7LIR2oChAA7LgWF5/fAkAtifDIHDA0CYjyqAwglaOZT6RHZzEM3NOiDWjQw2Wd1tZd4i4hYPAtKgC9Dt1YB4lBB92jS/wJIN964ieQeKwXrmcrrUBkvVoxNFB8zUorHIq9W2mFGERyGS4VXXwjWGmtupZGtNIKx+5IVlpBVQ4u1AUwNN2/CaKrgOD9UjsXRF+JO6gd5KFUnUgWEwKY0pXyTwUBrJ0RZoT2Z+aBkGspSBvv8nAVIWKk7Y8gAFGRQGWD00AMK4vvAGxHSL+ATxD6ZGtdUH1PRicuSb8wIgI8yau0hRWecNGyVwGiIstAQCZbSPRRjQhg6rvmtYcPAtrWBRkuCQ+BxDKCnk1N29LKdOXGrsbCjXFlU7PSEB4CiWUUn/S7+ARe3nPkEBHANpCIwvbBPSpKdAuC0YC0VXhEcKKJCZt2g8rCPqjgZBnyGgwdpOOPAy4nyNEjoqzW8OAhNHkGAPyYE0ACAD9I56gE0sqP6rC1QYYYmACQTFxuzKBBAXFBs7OxIZn2GAxRNrMEkonLPgFAl28ISwEAfRvSdQJAfnPauALg8nvGoGvJEPgCgNmg0UKEiq2c0aQIAAZxRhskgKJryWi03iaBB1u5yUs6rUazKAAYzxjtqABAnRgNb7hIi4Mt9RUAb9qvuMTHAvMJAOCDhzlghWkLH22ETbkaw5MwsJaM8UzY2iBjACQAGFcaI6bpkiYyY4g1g9YLZ4zJBAB72hjETYDeD8aoTwCw44xhogBgPGOMK8M+o+UDUQGAcDVGrnNP6ywZQ92wz2j52Hi6BAA+mBYAjCuN0bcAOsTAh+tzHbRLxvheANDIGRcE4aKcD15BzCd86JJj0gxcQfBrlD2t86KGLxwo41nw/EDxOoZgsHfALSrnKiOBTRiLkI3EPuGhG6JrJKnbWMO48fNbI0pvFMOmxeiFZdwUAL0PTdvsl1635o2x6eFfcHZtXBbjuN64i8ZOkl91y1mA5o3XGZywfrl3S901/P1E7OfCerBnB8e1cFkrnwreHho9bcSJimF/5U0D5o+oh4L+s3inYsL8sHzWutT6sfUSVTnQf1YPH32zwraXD2+vcXx7eHw8vwXy/v/42od8dX5lJH3+DQ==);lineShape=1;" parent="1" vertex="1">
          <mxGeometry x="294.6968519431006" y="147.07189169702028" width="0.3983951786902387" height="12.34801024098795" as="geometry" />
        </mxCell>
        <mxCell id="zlzvbHHpBnpUeQz4sAAR-63" value="" style="shape=stencil(nZ1ZsnS5jaRXk69hhzP5XN21D5kpVZKVWilLZfWw+yZaihsR7ud+/LPfcgjcM5Eg4HA4fir/9o8//+HvP/+Ur3/89usv//nz//rLH3/780/lv/2U81/+9ueff/3Lb/uffir//afyb3/65def/+PXX/7rb3/857///Q/xy/in//HL/4y/8L//abfy4+phla//88//kh9p/b//8O///P1f//K3999fj1bl9+X6/vdzPtYlv58Fft8f6/N+yqPT7+tjft5PfdQBv9+X//z77VHgeef16PPj9/2R4e+P+RhDfv+vB7r//Xik8vH78WjwvKM96ufv5yPR/ZTn6379fib4/dfnf/5+PTp833E90uf3TXuFwAX6eKzPG0rpkeEN9fYYTQ1oCfXyGOnTID8y3dLeA1kNOhlcj3qpwYKv0OajyzOUR8lg0B9jqQHtg1YfY6rBgNfavu74y6A+Lnjotj/TpQYFbqkue0v7JisYjEf/3Mup4YerTTf/NvjXi743qI8kS6M/Ehls79bVYMB+qNfzM30ZDHxLZdktzedyvDfYbymrwb981L1BfxT50utRyKA90ucV8vXI9AxFbynvxQKvteTn//4yyHxL12PKMbKXN9zSdlvy4bajT/Dhtt9dnxtoe+4GqzX+9+eH2671gofO/lr3DoEvvR9xfl4hXgPsh/0S2+fi2y86kUF6eqEvg/LctPcG291/vqVSHx3czF5q8tB7dS24pVj9n6t1L3g6H/b+0itMvqWuR279eqp7gx0ifK7Wmh4Ngobt5+TQ3X5ksUH7XN7bUxVYfNugStjT8Hy4MRiP62AgDz2fW+pbg88dtw8A8ktusI+YCxZf+grtvgy216C1tA0+V2vjUzQMPo/dfa4u2NPbQDxfnNwQCcTS+NzTOza46LXuI1BuaT0mXaFZBJqeO+S7/SDfYQdEjR56PN3Wl0F5Os/v9nT7XEs7qCM3s72GbKB+cMbpuRC+DAbmAdu3XhLXT76Cfbi+MEjc54Os1h0rLz6B+ucVIhinZ5h6Au1ov8Ja2udN/nzosZ8K/NI2WJ+Lb3RcrSU9Y8gvg4H5UkQCn4tv8HfYB5SspcGnaEQznwaTM5QdL/VPZzwT5oj7gJqfr3XyhysWnEzOH/YBtT5f6yzPeP+7uLV9btGdKHe6gkXGs+FrjfPm80DZqTshB3HeJDWYFHvPx5JnGOiX2qU7bk70fPu80dc6n+/t3qA8Xe+XwXr6kXuDZmuJD8U2NMBaHJzs40PS421AX3onr+IEVsIcKNJjMxiUHleNyFbG0GE7dzlQVmFMYGo0sypGM9v1yim6DTq4mZHU3a+Gwcn2pOJmtgElfqNpSrMa35IlfqvzQy/FrlZHz7f9nMAU24ASju2FBN1bA5PX7VQEddgGCR56b3nBNcIAVut2KqPad4ANtA2yfOl9xJCBf7iE3nsbtE93v7coxa1hYH5p8i1J/nBwleHcP/dDvAb+cBJKB/IKW/TGgFPLG4P0PAC+fWg72BGLbk/I4C3WIFcZq/Vzx43j4hP0dO/yRlfo+uHCj9Br/YKf3oJE/A79GeF9GSR2Al954Vvcig89tISw3XOnDzc0xd8HAKXHNwacP9wYFAx0bwz4yAoDyR8uBKTcYOdx1+GWJPEbz1PvR6/QsPZwY1AxpfG3tAOifLglMUgYt94YHPa0Lb4dNs7D4hODgVBLbCCDWiofKBIZR3DNTkCxmYyRcfjqz6URgBS9pa5Z1s4oKG51gwDVaGm4wcBywvyqo70Bg6dzWqBHzoFuDPLzv/yoAWfs/gw7YcbQwQ0mhz9u0PnIcoOGadmNQcHo/sYgnzaQLI2cjktDii4Liy6xgaTSNDma6U/89sugc4DVrbzWMFOMOrYY1Kdr+8FjN+XjgSLFr4RQS7wlqTRdfAI1y0Wff+H+9/nRJajkAys91/5XpPGsDX+XzyjehVHADtYEver89y0Y688o+bsMTgMfBMd2pCbILEMsO+6y3xOc0b+i2bffU57eDR5/Fjq+zeub/J4KLTuEylXfD7zPHUE1/V4UR7b5PCVf64G2WOuafI5nlf078EbxJIxFAh3S/ULJcMvqSRcCADsUEvRpb+DEFXit/F6nCrykhdun0JKICryxOWiP7VBIvVZGoH6HQtX8IhUQ66XlvaBOUDF6anlvu2o6MgMg7mpA8Vqp9uH49NiBirCgXkXL73D3f513bwZE/4hSgDz0eBb87g2GbuY4Y6kC37SslDjhyYbs5wvxrR1GSGSeLyyNxd8TFkHiat1UVHzHOuSSopb2ufjiqQ41zc8dlysbZI1EcsMNtDek7LhgLoDBUhJBFKYoNno6xbcgmD7b9sKf91PYKZmL2bsDKxMKAO7tl+GNFo0SdiJCIXZRNG9nOlge0iURlB/iulg2eKhX2e8ZjvxCN79+XxCNLBqFbB9Om6boKVsPhaFncvyWkJNzrOq5olCEf19O2YAU6IjSLLAlJpXZ7w/FPCVWtMplLXVajcNMI8UFbkRhoNIlg61IYa8GFUFIgO81LUq+GC7XglZAcURJfh5Db1gf3f9SB7rjWoLJdswk8UHviCMkK4IfyAjbYBiCSgFFxEySOV2YUu8QSMibg4t++1wSiGlnL8RYTYbGj3Ji8wj6OA5n63ZEWR8aj8qiZ2tfGLL4Wwq2Mt1S1og/eCr84cT5ds7pUtbTtTOvNxmhv39F0N8tPsmigi9EV0jmwCbmUYFLfO7QxnXIbSBHQrhI3kAS84cPpqWRlLa+nTwdCrGn5dRkr/cCY96OKcoGwwkIB7Aj+zkZNzlIg/SWigJAQRM5sAzF4GIeY9MS9Y51cPEZTLaDKTocIiIXg45Jc1DJPldrYdQlIvxqBpRKmSPbz0CrdRso65bLuxEyZP0OFCJl/3D56c+/vaXfVbPwqCqiPGK3Vc1QK3/piAt9x/2uK7TEKW3VDXSI3CI1k9CqYpUwchFxldygkA1y3cEbPnQzzG8hNzl3fUvb3eMzdONiZoyXIl2UY5e5Nnlqs8s+RfEtrScp9y1eIkyoWNfaYOSsJE38d7xEG2jnpJeFP5hVXVb5L1jIj4e2eInqkMXQjsF1lzCQ0GFhZacY1LbjJYrItoFwbXb4g2zPr1TtLfw5GAh6sZf34S3pFuUjqxiesrcoYaTbQKpT2wng0kiaobSCWzTqmhL+JIwEtoHkfPXw0EWJLYckPVqC5HxoWMMLkEZuqSD1fhtI0lQPPUTtpghOjqwYX2hHM9Q+sEMRyR/2wY7c5KG09fgTtLynlagrX8Hay/a3p2fY7yQ7PEcdbxZ7b09F+UM1amUemPjVrG8pd0T0omYgFeeKGXsYCIaZkS9Ukx6K0YFAV7g08csXHorFuPqZ217LF+/lDXombkHUPQx6xv0wtUSdO/Z9lKH8ucxQXTDpBYtNiCU79X47nose2g3q6Rn0lpgTe2Mw2fOZwSG6j9cqmeLB8/kVuL3sxqDzkTW0wlUng9bDUMoLA90wkDOuYMIRBp+LrzUO4YYm4G3wWjJ6aFSkuXdFAt3GNbSodIjB4XxIGhk37vAp6aZFDhdf0iBxxxoUt8bxIQYXluk9WN9rCT/cZdlux4zdo8q9HyhpKpeicJVlLIr1G7yOyR80KIs30GX8uUPf+KV1k8L0inJpVBkMPTYQ2C7CRn5o+Q6FM/b9v6WjIW6SvrRpQbzW73dRpXCMSsHqSanm7rnRvDQNdAuTyosV0svi6L5pAl6ZlOGOrFZkPhXrmajcxuE9dTvhIBi7GFenZf7Sw8CcisolxTpLonWXlvfU6L4dDvapD90vPnanPnRnunQsBEuP8chaGjr0xgIYlwaJO8Wnsk697AosT/HqpX/DZmjxvYKdNyCE/FLUt6WjoeIWjejI2jgoMt65rcCnY+Baqt4oshA5qValnQkjsmo03Vk4aar64aK7ix7aygnbgMKfanzAWZCFHmIqcoWLg/Wl3JJ4rbwftJA6nn/iOwOtWrIgVKRl8qWZ4FOmRsYv3ui3BrK8ExKtivEm+2KNmmllzsHxkql+bTeDQeLUTtzO9YdizcEhWkDntPtWJovFlzZgkECEyNgtf0AikdEz24Hlt7TG3iqHcEtbFRtjAk6eDPILOTKDsduFH65eiv4cGnaqFYMr81mqpTTbF6KbMR5hMJzolrJiM3HEsIyUxK018y0VjWYCeqTXWoz1NhHRrVZT3CEXVQdq05L5jowpY68WVRbuPPQzLi9sIIiFIBgZ+6WQsBEuZONnWEaerBiGRlgrGFnGA6UljWa2AZ3TUQsQg4JRZTPCX+Y8Lgys6YheaxjIQ0+E7baBfjhunAoDW0sEhPhbKhmDk1aU5XVA1ptFlbGBDh9ONtDAnrporpRnWKeloUX5C0OHVqwkwr1cNwZctQwDYWty6+6NAStovlpQ36HHw0Mb9EjCbX5Le9NSVNmKFiwa63814/C24+JT3amGgFQzLbkdnBD0uG9Acb6J+XRQIazBmaDHZuSIzqqB+xElEtgxHzUgbQNtKKoYGUfDtAtVkV+yLKt3/g5d9SH7QaPGgJAI1uktDV2t42LfOrSdJSQFaAOZhOtOaXB5WxvFYBChTf3SgxlSgaNbpohb1HhkoTZBz2CxxuQ+2WBpizwFA4N+KE7ulwv5IjNATGBpAW92DhKHSWxwthsgwtCHpjOuZkMduFsjoEzTzsL2AntLYzE/PxszZ+CXrqYpPbhx9AaQativXE3FebBYb612BS5YOPozDolfUyew/RI28nXL2Ln9ch/j1XwrNmIY+rMNBrlKYwF3rjQ1YzIPbqFuSWON/R1OKstiwNqKzehIoyHYH90v4lsHEzymuXtuYKpdY415sY6ztWxNFrqtxtGdCaOZeikdaR5oYYaRbQOKKsvQpTFZJLbc6R3hLRWNlyZz1oOTaEKGCKpZxW+yIutO8ySamUypimYjM6AKR1BSbC1RN1AIe9pqJXwpJ038BvOX0tKCdkhWUrPBVL73GNihlDzAYpgiSO4m7EmeLxuCNVhqPRdFEgc3/+emIEIA5dTNO6zo0jFjz+um6IJl/6QFi/3hsFRbTMJ1conQH/rAoDVNv8FJ04uB+LYfDmhoMwPK2Kt1Tc2jBkA2R4bipDbjYzLkVacyQkJqhELppNpZh+KXZ+yzcB5naOisyMFqJtx2ENBr04pfLBrQLztFebhB8PgtuqdO7J0Ma/4w8ECJZLirAVEXolZc1QDnoVz2WsdpwIkORJlYdBnVnmHiCTQs0J0MSA3reJ0Hsa3L1H0Zm5lZ2UVxSyT9U+6e4fcpUPJDu9JbGJBanS+Nib2Wy5oNJktLL+PdnwyyntMH2c1l0ONBdnMbSLA+68lA5wNlhOLDwMIfSjhuDCa6mWXgZggtHZ5BDsWGpK1VlL49GJuJ1+rdzdQzbt8hauwkomEFvM6EpxuDiVWaG4OOQaI/Qz++VkF0ezkuPsmnOUNZRiFpLObuS6Nxxc/3wz65D0tDDQrm0ze3xEy1m4dm6VB/rZX72H1514HpgH/pyjjfjUFFMMcXXy2nL61DVzJCLTcGXPxaRfOHYAMd9oNU/Fi98cagYy66inUGN0wtbwxYu2pZoFsY7L8xSKczTg14epQbxIy633VLmRkhy+vTLPGzDQR1yIzCLZs0E3MUaS015ZHlC9GfZZrgabJfavoMMYmM1lJXOcbUsOiyDWQDhWAAX0Hy6VT4BOo3enSUWq6uSyNxs8FyEXFsj1vWpsgg9g4Rbb4jqnou5SLx1KUdcOZPB8CUmZA0t3mNVH+c1vO+DVAqtWjuvb8ZZjOmfpNYrGAYDS4VLGO9cKH3hQrPMKzzMzXEcUa14Ygc2A/rwE3cBRDDg+SWJqt7LtNB5Fkl3ZpRE2NRO3zUGXsXFmh60SQxwFdwGD3ZtNnEUy2XwgGZZ3++wsc3A6qGhCio3FLhAS1Fc+9cWHY0aWb80p24h8eW8bV4tVZTvMzc+hClOHmtE6ka1RZf5vQnZvcI/SrxwNNsQjAFPV9zmZbGDJimUGvpqAYV3A65wmSKgNWMdshKEWgzR1Z5/HIbN4MFkTdnCrC1MyNs6JleGVpqw+Sj+EAJfoqLOzEDRir+rTKYOzU+bDyaarsZSbD2n8Aq7bJq+YXfod/pWBA81m0870GmpSerx/OhGGQrI0cRkaJbottZNKJ/zT55A01QStSa7w69Q91V6hJmZN2GhYasHUPeslojNqBnsP0wOmaV3Zb34JiyT2MtMH7QrW8/yrp0sBtJbWbWnGyGaxZefBZVHgo0/TIwtzDL03QkJw8m31u+Wh2YvkOzY3dwRtam4vyD89boP5dbqixBvmz8IksJRIBl7EIcBnfpFTqroseHs45DYrX1dINrUumh29i/ziTm7iKMmb13Vo3geCp6aFN1ji/DBqo9wHWvbryI1nmLFp3i15i/eGOQEaHwPd24NN2LUip3rEFwQBiYMgAd7N0qOpUHAMeHE/Z5QYJXtxndNWHLbs8G8S0eA5H1FC3jtJZ8RjemZfmmFYiqgz5Cckf3FPPdGFzsNbIlTZO9humkZmYX9mxa8BU1Rl8NiT+YKXZrrsgJW6e7jQ0PAXwKf4yTnJloF67XVIhwuujUGSGhpEQfbpqePWvTdBdG6nhkReFNMvaJhYHhShkcew8bzFE4Yx9Jw9CQDOXRMSq4cDGnIJsgT0GKwDCMvPLI7eihFwM+skZV/eYYBkcGRixqBROOYaPPo6GWrmA6FtFIQFfopm3Jkg4xMFIMOGMf1o3RuaIzpsL2kbMw3cRbUKiy9qL7vsV85IyHB4ksQDJNX2ewhntw2IwhiUP50g1ZkEDmabLY8RqYYyPR/WRFq5lVoGpmxu5NnnxWpOdOm6hyoJDNckNooeBkWp/BZMXDGEMueRwPxJ5Nw5+V+ZZ8PO9x/KLES4s7oWfVc3oNLFjOpF968QiWWDk2TBqdwNL98KoMf+cExFUuFkYaBpRPrkxtVykYWUz4pSpNM8USBhGGfYfBA+qGsRaCicTHroI5BaOZkY19nvg7WIWjTwSZY26DiSUTaTMKR3KFilD8MEXcznncuJSZ11nsbFxasDjQfoahoY17VobLUjBWOS7TweM+tGEczMZjiYZNt2sXhtLj0iJknZgej8tUG1mVa9gAxsoTALeBgv2Fw1DTSX2pv34b6ErB4uLvYBM1CjNVh81WK6xiOqyrvjTUsYjYRQpHh7i1aqPOS/jxOwOBvA6ydsN6rTMfu6MpJnAYfjiMAPwa9PWdgfSsZIbthg+eZS7s6FqwyFwSiWDdSDm444bGGokFbocVUhPz26eX/TuzKSxTTAPbaKbDFAdGSFYnkA9DvU2wLfMMm2ndSZmZSNECbOgPzqw3uKhw4WhmRRJDQ52eIWlJZHsNjCqtsbmw957W2FwWR8b5mbW9+VYc9WxvqWYOpQ1JrKye6at1n0DYZ2BQfOW5lWEgz7D4tWbj816nDST7obHE+rQG88Zym75FG2OV03WDF5KFpk1Z7dxWFh/OgsRDtitrqbPw9jRVrs7Y/bTW6R1KYzpg4k7Rwk7hT7+ZO4JQS9PErzfEjIeNHO6Vm42aTb/LHGA1hYBfzIHvQgc5gRpPQYiGKQmlWeLEO6wOSqyjanrcGraVhYHp65yavswJYFpmTIR2ceNa03JCCOdxRCY8gdA74C8t36EuzhS7MegXZ1nW6F8XRgKBuZkBxkvDsqyLuaE2fKgxJ/El1PqGShNPwIGQGDPF7FPByBqTGN3NtIw43+h2PuQT7q0zbA4GpqR0uqV2M4wLH7raQx9eq2/Rw4dzr3FYGk3jpdPia6Yrf1jexjM+bSDTDT5vUSknnJzA0KL8yc0Ma5g6OLKhadnJVQ59Sydn/P9jIBvoAIT4FTrn08OmILBE4vABGQeMbOpq7RfHGlOJyYdJoWPa8NIDGuoivQ0zlDEVGAxmGefTCm42/g5L69O9YGvcMJWJw0CxsSwd4Nh7LCPEcnQ/lhLPDvlDGJj3xhBu2aBDzoHG0vPhkGVtA/VLnMcNq+IfMsVhnTSHXPSlvPGD2e4wvalDPj1shN8pY7cRfgdMYKybYfaEOgwbpXjANfwtHZCT+HDS/8DYzFhKoz+gP7H4hDdTmOBhOy4zCzicgHW6EAFwmLR3OgguJPVLiUWFQgPCu3XI3duHy6zrEiRh63RBRogJ0WdWIRpTQ4fMSt3DJ5Cx5M8wfZ3oLWX6hcSt5RDNWA5UEkczXVnxhRWiI1iXW+I5z0ESlsbmhrQwJ9qUgZQqT/FDXp+je9VkZ1HSUS0Mzew1bDp8iCbSW/Im+UP9oegWrUxM9kpTPVQHson0XryBsiWvGUUYh/VwtAO7yCrgp0JqVtmixmJnUcAzrJK6iMPApuQgf8lKhJ3FMEe+4WDRsMaRtQ7UmeAxjPocykf0DKbJPo7ZbjZKFR0oke2KAU/ZHKYAOg7Le5h8FNPCxlSQedZTGKqaWQNV6mbSss7icvO0WaQrI2Nwmpt5iQvcG1StZS1WV56mMrH4w20DgR73FUjSYT+0VI8XZ4oza6l28bxtr5ZN1oCY6eZLI/EsGbuIR9K8Rg29LT5sxb/Ua0weOTCNZxw3yWGocKVfmd23YahJGaObmXoCjUPsPX/nbK1hczyj44iBEPlwwdVhyEuwmc6cRCcW9M6nqJd1jnoCWl5jAcNRdfH1C8v+w2QaGucP8ZnEoDOfzwKsxq3Ew2aGvwTLf/Bgj6nkZGCNXJVn8zp57hQkXtrtX3lqVDdc4zWt997Adlw5tJUM4wkkbvQd+qUzD7LqJqKSB7fhNiPaHBqIusYamSfcd1ddaNyGaw2mp/YeF7M4NBA1GxhzaFFyg0MTlJUTTm1WxpUujb+0X2Fwb5kVIV/z7b5dGiZxgH27Rt+uXNDuzbKsyh1HTTGyU1OgTQU5tR2a9FI7eI1mpanMrfXNnHFDQY74DsI5Yepzt6mzUbCgPd20nNA4OOl3TIRDt7/UUHrGtKwbTbKzSG/UM+TY5Yl83SUSBy9v09ztPKHS+0UHS91348KNQwdeuhEPpwCrJxXTHxxKh4GFodhKbGPMx7EdWuVnL4z5+p2YPsop1RtNBPwOzbqmeDp8t5gvgnV6S/VGOQK3qE2NGhz+eId2QCNkkO2WGGTuSR3Z3g9Uqo2ipjTvc3S/DXTIR8cAKzrvBZtpWDh6RdpfBiwZ2qx63JnvvQ2kWbknREOjt9/0BAh1aDas8TDcujl/6SAUVNVrRP5Az1A1XmqsABp/z/IHFOSoNmuOi5CtmmBT44ExJhdYy8lAmtFq4u9gLXsxspvn5Uku+pp0e29g7NMYnU5f2pozC7fhVutei7iVBwLIBjrInr70b99CaRyE262lO+NbioneJntKyhG13SgWEFZZjY60UxryfDH2VlIahinq0C2aWewo9pcYMC2smTZF5pE0rWoLa+ikkoF1aCce99VMfT8x6vCScnkzOGhTqLDi5FO0Kj0vcYd2pANiMLCVuA/Np1NnGZ+lHy41Lplf1hpTuUSYTaSTNXcdwUq8WkdTkDmERukZhknoJm4avzTmS0fcW5g5B/nWrGSKia54VgW8BhcfrHQ8cOHF/A+JZDDciyEOEpewGrvPI0fMcXmNFk/P1Yy2jdX+NSx9Y+XppWt0sGizkWUWZunpMoZQSqxJbhykxLFnGMgVCtajtoF64Ha6gu58Vh1YS8/axEKby5Zd5vaWdSdjQyHMcqJJwZ25jGhyEG1dxgoP0VaStu764fJBrt4NeCq3GxTWH7oxYHneG4OC7JptoPS0iuDejUFn5fZu3JfByu1uwBykZbHnDukJm1g2Zqkyd351xRtr5gER3ciUPEl5dWv8bscP97kfdjRKzMUbg8lu5q5bBUX9uzrjxtTfG4Nyeksq+3cYo+FX6AiBrq5h2KEu6Aad80n/Dp3l230tdRZo8dX6QuR/cD/0w5QYvwLnxP4M43Cg2H4YiYe+2GsdrF/qH24w2O2LL9pR+EtLtnfQLw0DE2jBYVR2hcMAUt8PkzX2bgwaD33pNmttsPduxkxhFGrHrCr2w2IOPqds/xfc0zYJbSVuOLZZaycDm+a22FX6vLiVMK/3iXRhwKQlgXHDgOk4zd8S09O6fQfsMOhKdVzpNFai2i0h/9/asteF4c+wBGtdrNE9TfzqoGTeFWrYBih46ppiPDugZy0kzsXKzUvbvQ4DF9swuerBmvVN04HJGqwvZcMvg36af5CnGuBk8UsJDrPhwV6tZS3E2+CWajcFbdZQ2jGkaopx40Y1nu1kmbNqypzByaMZwdPmTWcshhbLH2ZCiGXnI37GkdfYKZKuJWYT7CRMx+VeiMpkU6V5NU/dG3Rj/S0k8cUEExu9TH4pG+V0cJkvJ5toPRENjFk1JgZHezpfFv40BGeyKQYPVubMRXlUg0c65qYI/6vZ/LsPpxVgnh2Qpw7UefWZfrf49AoTe3qKqQMF7ZtmZhvuO1jnI7pfjKhOHy4oe0sNqKs0NMrsoSkt2/n5stdKwUktd9+BKl7GmDuwCSLdlmfg+et+PoyGNPJtIP2SgxH+OqzDIOPiqwbYR3xzuCXjCuMkpGW6Nwt5hdW6rENEj49ddWSshVtNaDMKHfRam4Y/4zDNySe8Xwjb1aZlh33GUT9MNX2JqHSQga3WWTDbrevGgL50S7qBQk6XSvd3M+QPBAehRc3M9AMbGnkaUWIkjZc087cGsuMGgv03V+g8cM3khAaX7gMRkytkrKkF50L4O4unORUj2/MQyGY8qj6wCajZmNYDghX0T3mG+rzmdwauzYDfwQZTBhWLWB02pvEgff7Sb3mDHnF+WtLqaWNkvSUtfrXOVBZjprTKe/oyOSGeWNpMC7cl5HfeGFynZ5AgsU70rX6FfWJQJT4MDLunHOjGgAfqNAsSY47d4S3Z/AM6H8JACkcLc9Fm8rw7CkRM4FLVgcLsy2Zp2Y5kKaVpBkgVbihrl0qPlMTT/i7Fl/I67QedHDkRzGmm7J9Zv7SZ+nSQlhgI0StUjO6bsZHzETkRwk8eDIQsxSrzwo79agXtw4erhsKVgin+jpd08bGIcTWgvPAM+Wo4X2FaVLVhNJWRxNqUnlYZ0a3NxEIz53H1ZmoKkviMgl15qGi1KaS1I95ai+neDKyxbwMXPMXo3ieDXby8szF5M5Z1Xs797RSlQLfa+KfGjd+hKm51UQJCglVrMgXUuFGTuvt22NNJKdj9Qp2PavHSa4LUtwa/q5Bak67WV+PRjz7DQEZIvCUJdBd20dV0p2vAb0kZaplps8lgOx7IWU0m+TVX6DsDUQwe43QFR3/QCRghdF5Y8avF8unEz1CsF53L/vsZdJIqT9Wq3jU0+HxwJJEHEO7zRq9QcD8ED0egFh5csQ0ECIlpZAQ9DvVLnZV1yrA8ruGXLjZDuhdUDC7dUsvMAG3XE+jQi74NvHWQPF8wriyPQwNvf2TeTAw0NIVUOoGKaRJHUEeYsfUaHtSBijduVGSFB/NNciCWRNoGqh63EJUuNra08HSC4jL6jZdGsiyLyaTF5uOUjC3N0dchrSEJ272KOePXn/jOQPgapWERsuSbfhgCc4rpQG3HQxnKjcFir2Gzxyq3P5Zs+4EB2peo2dvyJoJHMVWaqCfzlxZQrTJWWWwuS2Xsvtix2xLifMUGcraMIHMxGkxgvOy9FSPr7Gaq6XExv7Xc9ukdrtD1LVHSVKoBUsfvoHDR4DPOHroetqhB8ZXz6RsDJgv5LZXFrtINBu84N+BhA/5aXwv+R6/As/jcIHMzVqm6RfPANqNiKuAxRYhDB+HC5YIoXGmKe+d0ZISYMifVRcu0ZqzJ+cOlXUNpYPgTvrrYFSi6r5qxxzNwxU+HMzGJ0cGcnJGJUJv1cLAe14tw/o7zcV3U1UWx8loNejxgAibVtoMTSmlqVg3WYAPRLSVNB8qh5/NSncDS+YxbyjkpPN4j2BSm/YkEj2GgGkuqOger8sTCbaDAIEPx4QTkljrnok0B2gNsF7Qwn9bBBhL+NO4Uj0hbYo3C6YCNj21MeCoGIrTBzrjoWmoLa1klG18jIavF49bOVfxig7M7N64UV3QZHHsb3toXFr8iMha46DoFutK9NniSqn+HUTnWcLYdSwznZQwpRuFCfcuegfxSthb/wbKw20CEckJ6hMlzkk/3gdF9tqFAL6W0ewNnInAXYTawv3O2GxMQRT6Fp/1lH1Y2MX/Ipj/UGhJiX5IBbwkHOYFsk8G2I8NnSEqei6I83VK6yRSRiGm4RuSi/AwSnFTWyMhWHahMrg51d4OLKDh5KTG8ndNU8cs2pXpHAuTIksnzFp5es6NUBdUSYsbJZi0diAWpa6BbC5ZEXr3M76klPYMJR1XmVW4DXRrMb03WMBGrld5SNTQ0YbVsG4i7bxndfbLR3I0lhpNp97SOKX6yymubmIAnQ3RDyIOuYGy7zmXOZGqKveCRlSwH6hUxgWSjAA48smRF+ag/8H7Q5kxurU+3pyi91qEklRC04ysIEyGUzGl5dysRsgBBapplDT6ykgW6gyXCkpWbo7WLvoOl+IP5fF774sU61XfHuHHqjlP9l9OsTAtMuA2ga3bfeaBWNwF9nthlQGtotFGd2TqCM/ojU23vLNNYFIZqDAcay6lNRKFMH72xkksyoZWGGqfXTec6oTHGoToonF42YC1hmd9/z+xU+33ljm/jE9aB+9GYdbUhv8Q6SGrFI/ky8hTP3zWdmMrr87KhMzyZ8LpBhWh9XkZg45KvkVgLc1KTdjvuHBdb2tRfBbRNWIcGaYUHR9jEnDzx+3abmd65A1v3b66skWBaLzyTPU4wGR/FEvapKHU6M1STHK+9sEyahvJu0iGdWOp00zy1/AlXInEhNmctFqSBxeTQp5Jn6FjUz6YLkZhxuFeG6jexvG8x15h4aRSbEZRY9sShy5QxoiumZLiXI2VpZSoxIWSx6Aqm25+uUwefFm0u1krMiu0s5q1ZgsMSyNUwbW4LqEMX0uRSxLKGQoxgW7Lp6pgytqw8PZ5i06xExdSTnU8qIs+6kF624CYIUzGrPKEgadM1z2fq1hxcWEbBZjxzfa1Pq9Wehm/oeECeDmjzQzgAHLbnC+6XMWzEHKtBLouIWLHksukkLKVoUhw8oz4ETgQy4elBntFgwDu7/n1ud58mg83g3rr0/SeOwJf19CROWdel3MhU0MUtm96yz0pUwLt0TafOwlEWhicu802TOj7ELHMZwSFhCHJjwBBoGBgjgiCfG4OGLZw3t9SR6nhjwNKFNwYsXejPUHha9lwqPXIgIt4YFMygbm6pIVfYH7qwZJ4vvh0nUUg+fYYyNyeGgTjhhJ2AsYHEgIW5Y4uKG2ZeYTgBa9EhdHxZJ2BlzPTGYP7OK7za5H7UIOFaujEoLJxrvrUxFL3sOGwNCdI3BhxA3hgsVlO0Z+gXK6+5QWatQzcoLHjqBgxb3BgMVsCzL91ZesRf67hYr/Gy9pbjnpY0e7AQwjRN4sFKU9OytcHUrm0g1dMxWG7Ohl8PnnC8DVSb4eJ4ct1NQwWvcWNQcC3dGFQeeekGHXPO6aIaTPi5MeChOP5a14V1gfjSNqAVJdjtFF2FNcMvm7facPGtL+jhy6CfNpBANotHQ9w8NJPHppFl3pTEv0s3JHZYTOWd1oK2WIZj2nDGxQjJq+HszQAHcnflgSxWIRtV8b9tgElx0eJmKIlTFprstbJC/LCMYxvgILdpq4+jxG5F5sWM0G6dTKvx9ImkHLvF7Vttae66mPzSprJa96Ymt9G6ohPbAK9gSjmLmbmvlud3x8QAmgTfiwH06FAzA3J91doZX8HBdxijKs/yzMtqNNjJw91fwiFvBwR545oVdpiD1a8uE/8c3EZnhOfZkTwf/GXXGKZasM2LnMyAKyanOFkjrBRrIM6YQJSkaOZMzHVcWgQ4TODbGb1GiTw+PtsAhEMMl01g4jUB5t6gKclhVGwbCojRSKoH+qXqhicsewbYYzwNZI8t5Xb1hfNTo4pmA/UOdTqdXsfTHFPVBKKz9kjQa8SAdWGTVW87T+uK8pGp3NOO2wbyDPtMIswr6k0C5w4usNq8+WDA0S1deuw2LvneGBRMs9KlB0rLGGClS7doY/32MLA2azqnw0Dgn4kpu7/Ww1yJ9AWvvuFFlNMko84c1K+2QTPuBjLgrAuoXki+StYAcBg5sreodk2ztH8UnT/3Q2n84aw8WSqvJavnFG7qSSZVWxKzKY0DUVjzIjSGPx96n3oHOoCkA9GlQOdD0R2XO1f3jXOaKx7s2dQcMpNUswmY5oSOLC9T8LrQke3PJFyXxK/VW/YTs+2L6egnlsArNlQ8MT0/hBI+l0biHKiYkOzeg6hNlYzSUDn2zko8324B5bKq1aYylghDuqqqAUVkQWQ3HgcW4b2oyKMumkUCKeFAkGYt+4lnWAWPQKET3HFBJLArUEfZqwfuzYDOh26xxsJHiLHOWX6PEy+r5icLM9duMzg5h4uAU8SHcGUP0zkcWNwYWcmAXCofNhe4YZz0Gn/++j0BgqHErVQRioeHUW8KI8VJFaF5KE4kj0r9oPU2rSWetQ9iWMbn/V9Y/l2XUnuuE8AqeBJjmQG8TP091bqyJvQXF6KMBXghjL6MGnYYJmXhHQv2LWtXuNCvr6I1Vp42vixf44kWy8bKJ2yLXH7eM36edX8diCV2aDAyt7INVsZc8Pz7/Q9//8Nvf/7nv/zpL3/96z9++/WX//z5/f//6Zdff/6PX3/5r7/98es//ePPf/j7z/vf/i8=);lineShape=1;" parent="1" vertex="1">
          <mxGeometry x="285.2821701149801" y="147.73806034853928" width="9.439088514326933" height="11.245633072301567" as="geometry" />
        </mxCell>
        <mxCell id="zlzvbHHpBnpUeQz4sAAR-64" value="" style="ellipse;whiteSpace=wrap;html=1;" parent="1" vertex="1">
          <mxGeometry x="285.28" y="162.5" width="20" height="12.5" as="geometry" />
        </mxCell>
        <mxCell id="zlzvbHHpBnpUeQz4sAAR-65" value="" style="shape=stencil(lVrbcls3DPwavXJ4vzyn6X9kJk7tqWtnHKdt/j7gaCgbS2lx/CbLWB0ABJcL8JzSpx/3X77fnaL/8fry/Pfdfw9fX+9P6Y9TjA9P93cvD6/y6ZQ+n9Knb88vd3+9PP98+nr++/uXaTk//fP87/yF/8+4OlwfExX9r/M33o3zF3+e7R8fnt7ZN+9iU/bRRU/sg+tV2SfXGrFPLnZlX5xPxD674pV9dbEQ++JKVvbNZWZfXdb23VVm31wMyl4SzO279j8EFwigB1yAEF0mK9aL6wBIbtTbgOFXhBdAcZkBJKc65lBXVV0HSJJ0UYROYxBA1k+QMmVZGuKALiOpU98pIOp1jtkFUtgC8DoGqVSaVnlC0oDmaqSAqrem1JJnLjUX9Eonv3bTLUCJGhC4Sw1dSsl5sp0F0AAgG5ZlqS16uACqC4ZLegMl+QkedATAcIUVn6yDrqUcVt5uAYAzcnKJl0bSLuWylvImQGcp18WztwABXOquEV6VPd00CRTvWqCArF0qceXtFiDpDVQyX4eyPL4AKj17ZtAAkNLgC1cAMFzgrDE0L1W/yvFW8XkARPMJeuFqWtR2FHA58o661Di3NpcA0F0xSEDTzFQdbB36ot7LIR2oChAA7LgWF5/fAkAtifDIHDA0CYjyqAwglaOZT6RHZzEM3NOiDWjQw2Wd1tZd4i4hYPAtKgC9Dt1YB4lBB92jS/wJIN964ieQeKwXrmcrrUBkvVoxNFB8zUorHIq9W2mFGERyGS4VXXwjWGmtupZGtNIKx+5IVlpBVQ4u1AUwNN2/CaKrgOD9UjsXRF+JO6gd5KFUnUgWEwKY0pXyTwUBrJ0RZoT2Z+aBkGspSBvv8nAVIWKk7Y8gAFGRQGWD00AMK4vvAGxHSL+ATxD6ZGtdUH1PRicuSb8wIgI8yau0hRWecNGyVwGiIstAQCZbSPRRjQhg6rvmtYcPAtrWBRkuCQ+BxDKCnk1N29LKdOXGrsbCjXFlU7PSEB4CiWUUn/S7+ARe3nPkEBHANpCIwvbBPSpKdAuC0YC0VXhEcKKJCZt2g8rCPqjgZBnyGgwdpOOPAy4nyNEjoqzW8OAhNHkGAPyYE0ACAD9I56gE0sqP6rC1QYYYmACQTFxuzKBBAXFBs7OxIZn2GAxRNrMEkonLPgFAl28ISwEAfRvSdQJAfnPauALg8nvGoGvJEPgCgNmg0UKEiq2c0aQIAAZxRhskgKJryWi03iaBB1u5yUs6rUazKAAYzxjtqABAnRgNb7hIi4Mt9RUAb9qvuMTHAvMJAOCDhzlghWkLH22ETbkaw5MwsJaM8UzY2iBjACQAGFcaI6bpkiYyY4g1g9YLZ4zJBAB72hjETYDeD8aoTwCw44xhogBgPGOMK8M+o+UDUQGAcDVGrnNP6ywZQ92wz2j52Hi6BAA+mBYAjCuN0bcAOsTAh+tzHbRLxvheANDIGRcE4aKcD15BzCd86JJj0gxcQfBrlD2t86KGLxwo41nw/EDxOoZgsHfALSrnKiOBTRiLkI3EPuGhG6JrJKnbWMO48fNbI0pvFMOmxeiFZdwUAL0PTdvsl1635o2x6eFfcHZtXBbjuN64i8ZOkl91y1mA5o3XGZywfrl3S901/P1E7OfCerBnB8e1cFkrnwreHho9bcSJimF/5U0D5o+oh4L+s3inYsL8sHzWutT6sfUSVTnQf1YPH32zwraXD2+vcXx7eHw8vwXy/v/42od8dX5lJH3+DQ==);lineShape=1;" parent="1" vertex="1">
          <mxGeometry x="294.9768519431006" y="162.57189169702028" width="0.3983951786902387" height="12.34801024098795" as="geometry" />
        </mxCell>
        <mxCell id="zlzvbHHpBnpUeQz4sAAR-66" value="" style="shape=stencil(nZ1ZsnS5jaRXk69hhzP5XN21D5kpVZKVWilLZfWw+yZaihsR7ud+/LPfcgjcM5Eg4HA4fir/9o8//+HvP/+Ur3/89usv//nz//rLH3/780/lv/2U81/+9ueff/3Lb/uffir//afyb3/65def/+PXX/7rb3/857///Q/xy/in//HL/4y/8L//abfy4+phla//88//kh9p/b//8O///P1f//K3999fj1bl9+X6/vdzPtYlv58Fft8f6/N+yqPT7+tjft5PfdQBv9+X//z77VHgeef16PPj9/2R4e+P+RhDfv+vB7r//Xik8vH78WjwvKM96ufv5yPR/ZTn6379fib4/dfnf/5+PTp833E90uf3TXuFwAX6eKzPG0rpkeEN9fYYTQ1oCfXyGOnTID8y3dLeA1kNOhlcj3qpwYKv0OajyzOUR8lg0B9jqQHtg1YfY6rBgNfavu74y6A+Lnjotj/TpQYFbqkue0v7JisYjEf/3Mup4YerTTf/NvjXi743qI8kS6M/Ehls79bVYMB+qNfzM30ZDHxLZdktzedyvDfYbymrwb981L1BfxT50utRyKA90ucV8vXI9AxFbynvxQKvteTn//4yyHxL12PKMbKXN9zSdlvy4bajT/Dhtt9dnxtoe+4GqzX+9+eH2671gofO/lr3DoEvvR9xfl4hXgPsh/0S2+fi2y86kUF6eqEvg/LctPcG291/vqVSHx3czF5q8tB7dS24pVj9n6t1L3g6H/b+0itMvqWuR279eqp7gx0ifK7Wmh4Ngobt5+TQ3X5ksUH7XN7bUxVYfNugStjT8Hy4MRiP62AgDz2fW+pbg88dtw8A8ktusI+YCxZf+grtvgy216C1tA0+V2vjUzQMPo/dfa4u2NPbQDxfnNwQCcTS+NzTOza46LXuI1BuaT0mXaFZBJqeO+S7/SDfYQdEjR56PN3Wl0F5Os/v9nT7XEs7qCM3s72GbKB+cMbpuRC+DAbmAdu3XhLXT76Cfbi+MEjc54Os1h0rLz6B+ucVIhinZ5h6Au1ov8Ja2udN/nzosZ8K/NI2WJ+Lb3RcrSU9Y8gvg4H5UkQCn4tv8HfYB5SspcGnaEQznwaTM5QdL/VPZzwT5oj7gJqfr3XyhysWnEzOH/YBtT5f6yzPeP+7uLV9btGdKHe6gkXGs+FrjfPm80DZqTshB3HeJDWYFHvPx5JnGOiX2qU7bk70fPu80dc6n+/t3qA8Xe+XwXr6kXuDZmuJD8U2NMBaHJzs40PS421AX3onr+IEVsIcKNJjMxiUHleNyFbG0GE7dzlQVmFMYGo0sypGM9v1yim6DTq4mZHU3a+Gwcn2pOJmtgElfqNpSrMa35IlfqvzQy/FrlZHz7f9nMAU24ASju2FBN1bA5PX7VQEddgGCR56b3nBNcIAVut2KqPad4ANtA2yfOl9xJCBf7iE3nsbtE93v7coxa1hYH5p8i1J/nBwleHcP/dDvAb+cBJKB/IKW/TGgFPLG4P0PAC+fWg72BGLbk/I4C3WIFcZq/Vzx43j4hP0dO/yRlfo+uHCj9Br/YKf3oJE/A79GeF9GSR2Al954Vvcig89tISw3XOnDzc0xd8HAKXHNwacP9wYFAx0bwz4yAoDyR8uBKTcYOdx1+GWJPEbz1PvR6/QsPZwY1AxpfG3tAOifLglMUgYt94YHPa0Lb4dNs7D4hODgVBLbCCDWiofKBIZR3DNTkCxmYyRcfjqz6URgBS9pa5Z1s4oKG51gwDVaGm4wcBywvyqo70Bg6dzWqBHzoFuDPLzv/yoAWfs/gw7YcbQwQ0mhz9u0PnIcoOGadmNQcHo/sYgnzaQLI2cjktDii4Liy6xgaTSNDma6U/89sugc4DVrbzWMFOMOrYY1Kdr+8FjN+XjgSLFr4RQS7wlqTRdfAI1y0Wff+H+9/nRJajkAys91/5XpPGsDX+XzyjehVHADtYEver89y0Y688o+bsMTgMfBMd2pCbILEMsO+6y3xOc0b+i2bffU57eDR5/Fjq+zeub/J4KLTuEylXfD7zPHUE1/V4UR7b5PCVf64G2WOuafI5nlf078EbxJIxFAh3S/ULJcMvqSRcCADsUEvRpb+DEFXit/F6nCrykhdun0JKICryxOWiP7VBIvVZGoH6HQtX8IhUQ66XlvaBOUDF6anlvu2o6MgMg7mpA8Vqp9uH49NiBirCgXkXL73D3f513bwZE/4hSgDz0eBb87g2GbuY4Y6kC37SslDjhyYbs5wvxrR1GSGSeLyyNxd8TFkHiat1UVHzHOuSSopb2ufjiqQ41zc8dlysbZI1EcsMNtDek7LhgLoDBUhJBFKYoNno6xbcgmD7b9sKf91PYKZmL2bsDKxMKAO7tl+GNFo0SdiJCIXZRNG9nOlge0iURlB/iulg2eKhX2e8ZjvxCN79+XxCNLBqFbB9Om6boKVsPhaFncvyWkJNzrOq5olCEf19O2YAU6IjSLLAlJpXZ7w/FPCVWtMplLXVajcNMI8UFbkRhoNIlg61IYa8GFUFIgO81LUq+GC7XglZAcURJfh5Db1gf3f9SB7rjWoLJdswk8UHviCMkK4IfyAjbYBiCSgFFxEySOV2YUu8QSMibg4t++1wSiGlnL8RYTYbGj3Ji8wj6OA5n63ZEWR8aj8qiZ2tfGLL4Wwq2Mt1S1og/eCr84cT5ds7pUtbTtTOvNxmhv39F0N8tPsmigi9EV0jmwCbmUYFLfO7QxnXIbSBHQrhI3kAS84cPpqWRlLa+nTwdCrGn5dRkr/cCY96OKcoGwwkIB7Aj+zkZNzlIg/SWigJAQRM5sAzF4GIeY9MS9Y51cPEZTLaDKTocIiIXg45Jc1DJPldrYdQlIvxqBpRKmSPbz0CrdRso65bLuxEyZP0OFCJl/3D56c+/vaXfVbPwqCqiPGK3Vc1QK3/piAt9x/2uK7TEKW3VDXSI3CI1k9CqYpUwchFxldygkA1y3cEbPnQzzG8hNzl3fUvb3eMzdONiZoyXIl2UY5e5Nnlqs8s+RfEtrScp9y1eIkyoWNfaYOSsJE38d7xEG2jnpJeFP5hVXVb5L1jIj4e2eInqkMXQjsF1lzCQ0GFhZacY1LbjJYrItoFwbXb4g2zPr1TtLfw5GAh6sZf34S3pFuUjqxiesrcoYaTbQKpT2wng0kiaobSCWzTqmhL+JIwEtoHkfPXw0EWJLYckPVqC5HxoWMMLkEZuqSD1fhtI0lQPPUTtpghOjqwYX2hHM9Q+sEMRyR/2wY7c5KG09fgTtLynlagrX8Hay/a3p2fY7yQ7PEcdbxZ7b09F+UM1amUemPjVrG8pd0T0omYgFeeKGXsYCIaZkS9Ukx6K0YFAV7g08csXHorFuPqZ217LF+/lDXombkHUPQx6xv0wtUSdO/Z9lKH8ucxQXTDpBYtNiCU79X47nose2g3q6Rn0lpgTe2Mw2fOZwSG6j9cqmeLB8/kVuL3sxqDzkTW0wlUng9bDUMoLA90wkDOuYMIRBp+LrzUO4YYm4G3wWjJ6aFSkuXdFAt3GNbSodIjB4XxIGhk37vAp6aZFDhdf0iBxxxoUt8bxIQYXluk9WN9rCT/cZdlux4zdo8q9HyhpKpeicJVlLIr1G7yOyR80KIs30GX8uUPf+KV1k8L0inJpVBkMPTYQ2C7CRn5o+Q6FM/b9v6WjIW6SvrRpQbzW73dRpXCMSsHqSanm7rnRvDQNdAuTyosV0svi6L5pAl6ZlOGOrFZkPhXrmajcxuE9dTvhIBi7GFenZf7Sw8CcisolxTpLonWXlvfU6L4dDvapD90vPnanPnRnunQsBEuP8chaGjr0xgIYlwaJO8Wnsk697AosT/HqpX/DZmjxvYKdNyCE/FLUt6WjoeIWjejI2jgoMt65rcCnY+Baqt4oshA5qValnQkjsmo03Vk4aar64aK7ix7aygnbgMKfanzAWZCFHmIqcoWLg/Wl3JJ4rbwftJA6nn/iOwOtWrIgVKRl8qWZ4FOmRsYv3ui3BrK8ExKtivEm+2KNmmllzsHxkql+bTeDQeLUTtzO9YdizcEhWkDntPtWJovFlzZgkECEyNgtf0AikdEz24Hlt7TG3iqHcEtbFRtjAk6eDPILOTKDsduFH65eiv4cGnaqFYMr81mqpTTbF6KbMR5hMJzolrJiM3HEsIyUxK018y0VjWYCeqTXWoz1NhHRrVZT3CEXVQdq05L5jowpY68WVRbuPPQzLi9sIIiFIBgZ+6WQsBEuZONnWEaerBiGRlgrGFnGA6UljWa2AZ3TUQsQg4JRZTPCX+Y8Lgys6YheaxjIQ0+E7baBfjhunAoDW0sEhPhbKhmDk1aU5XVA1ptFlbGBDh9ONtDAnrporpRnWKeloUX5C0OHVqwkwr1cNwZctQwDYWty6+6NAStovlpQ36HHw0Mb9EjCbX5Le9NSVNmKFiwa63814/C24+JT3amGgFQzLbkdnBD0uG9Acb6J+XRQIazBmaDHZuSIzqqB+xElEtgxHzUgbQNtKKoYGUfDtAtVkV+yLKt3/g5d9SH7QaPGgJAI1uktDV2t42LfOrSdJSQFaAOZhOtOaXB5WxvFYBChTf3SgxlSgaNbpohb1HhkoTZBz2CxxuQ+2WBpizwFA4N+KE7ulwv5IjNATGBpAW92DhKHSWxwthsgwtCHpjOuZkMduFsjoEzTzsL2AntLYzE/PxszZ+CXrqYpPbhx9AaQativXE3FebBYb612BS5YOPozDolfUyew/RI28nXL2Ln9ch/j1XwrNmIY+rMNBrlKYwF3rjQ1YzIPbqFuSWON/R1OKstiwNqKzehIoyHYH90v4lsHEzymuXtuYKpdY415sY6ztWxNFrqtxtGdCaOZeikdaR5oYYaRbQOKKsvQpTFZJLbc6R3hLRWNlyZz1oOTaEKGCKpZxW+yIutO8ySamUypimYjM6AKR1BSbC1RN1AIe9pqJXwpJ038BvOX0tKCdkhWUrPBVL73GNihlDzAYpgiSO4m7EmeLxuCNVhqPRdFEgc3/+emIEIA5dTNO6zo0jFjz+um6IJl/6QFi/3hsFRbTMJ1conQH/rAoDVNv8FJ04uB+LYfDmhoMwPK2Kt1Tc2jBkA2R4bipDbjYzLkVacyQkJqhELppNpZh+KXZ+yzcB5naOisyMFqJtx2ENBr04pfLBrQLztFebhB8PgtuqdO7J0Ma/4w8ECJZLirAVEXolZc1QDnoVz2WsdpwIkORJlYdBnVnmHiCTQs0J0MSA3reJ0Hsa3L1H0Zm5lZ2UVxSyT9U+6e4fcpUPJDu9JbGJBanS+Nib2Wy5oNJktLL+PdnwyyntMH2c1l0ONBdnMbSLA+68lA5wNlhOLDwMIfSjhuDCa6mWXgZggtHZ5BDsWGpK1VlL49GJuJ1+rdzdQzbt8hauwkomEFvM6EpxuDiVWaG4OOQaI/Qz++VkF0ezkuPsmnOUNZRiFpLObuS6Nxxc/3wz65D0tDDQrm0ze3xEy1m4dm6VB/rZX72H1514HpgH/pyjjfjUFFMMcXXy2nL61DVzJCLTcGXPxaRfOHYAMd9oNU/Fi98cagYy66inUGN0wtbwxYu2pZoFsY7L8xSKczTg14epQbxIy633VLmRkhy+vTLPGzDQR1yIzCLZs0E3MUaS015ZHlC9GfZZrgabJfavoMMYmM1lJXOcbUsOiyDWQDhWAAX0Hy6VT4BOo3enSUWq6uSyNxs8FyEXFsj1vWpsgg9g4Rbb4jqnou5SLx1KUdcOZPB8CUmZA0t3mNVH+c1vO+DVAqtWjuvb8ZZjOmfpNYrGAYDS4VLGO9cKH3hQrPMKzzMzXEcUa14Ygc2A/rwE3cBRDDg+SWJqt7LtNB5Fkl3ZpRE2NRO3zUGXsXFmh60SQxwFdwGD3ZtNnEUy2XwgGZZ3++wsc3A6qGhCio3FLhAS1Fc+9cWHY0aWb80p24h8eW8bV4tVZTvMzc+hClOHmtE6ka1RZf5vQnZvcI/SrxwNNsQjAFPV9zmZbGDJimUGvpqAYV3A65wmSKgNWMdshKEWgzR1Z5/HIbN4MFkTdnCrC1MyNs6JleGVpqw+Sj+EAJfoqLOzEDRir+rTKYOzU+bDyaarsZSbD2n8Aq7bJq+YXfod/pWBA81m0870GmpSerx/OhGGQrI0cRkaJbottZNKJ/zT55A01QStSa7w69Q91V6hJmZN2GhYasHUPeslojNqBnsP0wOmaV3Zb34JiyT2MtMH7QrW8/yrp0sBtJbWbWnGyGaxZefBZVHgo0/TIwtzDL03QkJw8m31u+Wh2YvkOzY3dwRtam4vyD89boP5dbqixBvmz8IksJRIBl7EIcBnfpFTqroseHs45DYrX1dINrUumh29i/ziTm7iKMmb13Vo3geCp6aFN1ji/DBqo9wHWvbryI1nmLFp3i15i/eGOQEaHwPd24NN2LUip3rEFwQBiYMgAd7N0qOpUHAMeHE/Z5QYJXtxndNWHLbs8G8S0eA5H1FC3jtJZ8RjemZfmmFYiqgz5Cckf3FPPdGFzsNbIlTZO9humkZmYX9mxa8BU1Rl8NiT+YKXZrrsgJW6e7jQ0PAXwKf4yTnJloF67XVIhwuujUGSGhpEQfbpqePWvTdBdG6nhkReFNMvaJhYHhShkcew8bzFE4Yx9Jw9CQDOXRMSq4cDGnIJsgT0GKwDCMvPLI7eihFwM+skZV/eYYBkcGRixqBROOYaPPo6GWrmA6FtFIQFfopm3Jkg4xMFIMOGMf1o3RuaIzpsL2kbMw3cRbUKiy9qL7vsV85IyHB4ksQDJNX2ewhntw2IwhiUP50g1ZkEDmabLY8RqYYyPR/WRFq5lVoGpmxu5NnnxWpOdOm6hyoJDNckNooeBkWp/BZMXDGEMueRwPxJ5Nw5+V+ZZ8PO9x/KLES4s7oWfVc3oNLFjOpF968QiWWDk2TBqdwNL98KoMf+cExFUuFkYaBpRPrkxtVykYWUz4pSpNM8USBhGGfYfBA+qGsRaCicTHroI5BaOZkY19nvg7WIWjTwSZY26DiSUTaTMKR3KFilD8MEXcznncuJSZ11nsbFxasDjQfoahoY17VobLUjBWOS7TweM+tGEczMZjiYZNt2sXhtLj0iJknZgej8tUG1mVa9gAxsoTALeBgv2Fw1DTSX2pv34b6ErB4uLvYBM1CjNVh81WK6xiOqyrvjTUsYjYRQpHh7i1aqPOS/jxOwOBvA6ydsN6rTMfu6MpJnAYfjiMAPwa9PWdgfSsZIbthg+eZS7s6FqwyFwSiWDdSDm444bGGokFbocVUhPz26eX/TuzKSxTTAPbaKbDFAdGSFYnkA9DvU2wLfMMm2ndSZmZSNECbOgPzqw3uKhw4WhmRRJDQ52eIWlJZHsNjCqtsbmw957W2FwWR8b5mbW9+VYc9WxvqWYOpQ1JrKye6at1n0DYZ2BQfOW5lWEgz7D4tWbj816nDST7obHE+rQG88Zym75FG2OV03WDF5KFpk1Z7dxWFh/OgsRDtitrqbPw9jRVrs7Y/bTW6R1KYzpg4k7Rwk7hT7+ZO4JQS9PErzfEjIeNHO6Vm42aTb/LHGA1hYBfzIHvQgc5gRpPQYiGKQmlWeLEO6wOSqyjanrcGraVhYHp65yavswJYFpmTIR2ceNa03JCCOdxRCY8gdA74C8t36EuzhS7MegXZ1nW6F8XRgKBuZkBxkvDsqyLuaE2fKgxJ/El1PqGShNPwIGQGDPF7FPByBqTGN3NtIw43+h2PuQT7q0zbA4GpqR0uqV2M4wLH7raQx9eq2/Rw4dzr3FYGk3jpdPia6Yrf1jexjM+bSDTDT5vUSknnJzA0KL8yc0Ma5g6OLKhadnJVQ59Sydn/P9jIBvoAIT4FTrn08OmILBE4vABGQeMbOpq7RfHGlOJyYdJoWPa8NIDGuoivQ0zlDEVGAxmGefTCm42/g5L69O9YGvcMJWJw0CxsSwd4Nh7LCPEcnQ/lhLPDvlDGJj3xhBu2aBDzoHG0vPhkGVtA/VLnMcNq+IfMsVhnTSHXPSlvPGD2e4wvalDPj1shN8pY7cRfgdMYKybYfaEOgwbpXjANfwtHZCT+HDS/8DYzFhKoz+gP7H4hDdTmOBhOy4zCzicgHW6EAFwmLR3OgguJPVLiUWFQgPCu3XI3duHy6zrEiRh63RBRogJ0WdWIRpTQ4fMSt3DJ5Cx5M8wfZ3oLWX6hcSt5RDNWA5UEkczXVnxhRWiI1iXW+I5z0ESlsbmhrQwJ9qUgZQqT/FDXp+je9VkZ1HSUS0Mzew1bDp8iCbSW/Im+UP9oegWrUxM9kpTPVQHson0XryBsiWvGUUYh/VwtAO7yCrgp0JqVtmixmJnUcAzrJK6iMPApuQgf8lKhJ3FMEe+4WDRsMaRtQ7UmeAxjPocykf0DKbJPo7ZbjZKFR0oke2KAU/ZHKYAOg7Le5h8FNPCxlSQedZTGKqaWQNV6mbSss7icvO0WaQrI2Nwmpt5iQvcG1StZS1WV56mMrH4w20DgR73FUjSYT+0VI8XZ4oza6l28bxtr5ZN1oCY6eZLI/EsGbuIR9K8Rg29LT5sxb/Ua0weOTCNZxw3yWGocKVfmd23YahJGaObmXoCjUPsPX/nbK1hczyj44iBEPlwwdVhyEuwmc6cRCcW9M6nqJd1jnoCWl5jAcNRdfH1C8v+w2QaGucP8ZnEoDOfzwKsxq3Ew2aGvwTLf/Bgj6nkZGCNXJVn8zp57hQkXtrtX3lqVDdc4zWt997Adlw5tJUM4wkkbvQd+qUzD7LqJqKSB7fhNiPaHBqIusYamSfcd1ddaNyGaw2mp/YeF7M4NBA1GxhzaFFyg0MTlJUTTm1WxpUujb+0X2Fwb5kVIV/z7b5dGiZxgH27Rt+uXNDuzbKsyh1HTTGyU1OgTQU5tR2a9FI7eI1mpanMrfXNnHFDQY74DsI5Yepzt6mzUbCgPd20nNA4OOl3TIRDt7/UUHrGtKwbTbKzSG/UM+TY5Yl83SUSBy9v09ztPKHS+0UHS91348KNQwdeuhEPpwCrJxXTHxxKh4GFodhKbGPMx7EdWuVnL4z5+p2YPsop1RtNBPwOzbqmeDp8t5gvgnV6S/VGOQK3qE2NGhz+eId2QCNkkO2WGGTuSR3Z3g9Uqo2ipjTvc3S/DXTIR8cAKzrvBZtpWDh6RdpfBiwZ2qx63JnvvQ2kWbknREOjt9/0BAh1aDas8TDcujl/6SAUVNVrRP5Az1A1XmqsABp/z/IHFOSoNmuOi5CtmmBT44ExJhdYy8lAmtFq4u9gLXsxspvn5Uku+pp0e29g7NMYnU5f2pozC7fhVutei7iVBwLIBjrInr70b99CaRyE262lO+NbioneJntKyhG13SgWEFZZjY60UxryfDH2VlIahinq0C2aWewo9pcYMC2smTZF5pE0rWoLa+ikkoF1aCce99VMfT8x6vCScnkzOGhTqLDi5FO0Kj0vcYd2pANiMLCVuA/Np1NnGZ+lHy41Lplf1hpTuUSYTaSTNXcdwUq8WkdTkDmERukZhknoJm4avzTmS0fcW5g5B/nWrGSKia54VgW8BhcfrHQ8cOHF/A+JZDDciyEOEpewGrvPI0fMcXmNFk/P1Yy2jdX+NSx9Y+XppWt0sGizkWUWZunpMoZQSqxJbhykxLFnGMgVCtajtoF64Ha6gu58Vh1YS8/axEKby5Zd5vaWdSdjQyHMcqJJwZ25jGhyEG1dxgoP0VaStu764fJBrt4NeCq3GxTWH7oxYHneG4OC7JptoPS0iuDejUFn5fZu3JfByu1uwBykZbHnDukJm1g2Zqkyd351xRtr5gER3ciUPEl5dWv8bscP97kfdjRKzMUbg8lu5q5bBUX9uzrjxtTfG4Nyeksq+3cYo+FX6AiBrq5h2KEu6Aad80n/Dp3l230tdRZo8dX6QuR/cD/0w5QYvwLnxP4M43Cg2H4YiYe+2GsdrF/qH24w2O2LL9pR+EtLtnfQLw0DE2jBYVR2hcMAUt8PkzX2bgwaD33pNmttsPduxkxhFGrHrCr2w2IOPqds/xfc0zYJbSVuOLZZaycDm+a22FX6vLiVMK/3iXRhwKQlgXHDgOk4zd8S09O6fQfsMOhKdVzpNFai2i0h/9/asteF4c+wBGtdrNE9TfzqoGTeFWrYBih46ppiPDugZy0kzsXKzUvbvQ4DF9swuerBmvVN04HJGqwvZcMvg36af5CnGuBk8UsJDrPhwV6tZS3E2+CWajcFbdZQ2jGkaopx40Y1nu1kmbNqypzByaMZwdPmTWcshhbLH2ZCiGXnI37GkdfYKZKuJWYT7CRMx+VeiMpkU6V5NU/dG3Rj/S0k8cUEExu9TH4pG+V0cJkvJ5toPRENjFk1JgZHezpfFv40BGeyKQYPVubMRXlUg0c65qYI/6vZ/LsPpxVgnh2Qpw7UefWZfrf49AoTe3qKqQMF7ZtmZhvuO1jnI7pfjKhOHy4oe0sNqKs0NMrsoSkt2/n5stdKwUktd9+BKl7GmDuwCSLdlmfg+et+PoyGNPJtIP2SgxH+OqzDIOPiqwbYR3xzuCXjCuMkpGW6Nwt5hdW6rENEj49ddWSshVtNaDMKHfRam4Y/4zDNySe8Xwjb1aZlh33GUT9MNX2JqHSQga3WWTDbrevGgL50S7qBQk6XSvd3M+QPBAehRc3M9AMbGnkaUWIkjZc087cGsuMGgv03V+g8cM3khAaX7gMRkytkrKkF50L4O4unORUj2/MQyGY8qj6wCajZmNYDghX0T3mG+rzmdwauzYDfwQZTBhWLWB02pvEgff7Sb3mDHnF+WtLqaWNkvSUtfrXOVBZjprTKe/oyOSGeWNpMC7cl5HfeGFynZ5AgsU70rX6FfWJQJT4MDLunHOjGgAfqNAsSY47d4S3Z/AM6H8JACkcLc9Fm8rw7CkRM4FLVgcLsy2Zp2Y5kKaVpBkgVbihrl0qPlMTT/i7Fl/I67QedHDkRzGmm7J9Zv7SZ+nSQlhgI0StUjO6bsZHzETkRwk8eDIQsxSrzwo79agXtw4erhsKVgin+jpd08bGIcTWgvPAM+Wo4X2FaVLVhNJWRxNqUnlYZ0a3NxEIz53H1ZmoKkviMgl15qGi1KaS1I95ai+neDKyxbwMXPMXo3ieDXby8szF5M5Z1Xs797RSlQLfa+KfGjd+hKm51UQJCglVrMgXUuFGTuvt22NNJKdj9Qp2PavHSa4LUtwa/q5Bak67WV+PRjz7DQEZIvCUJdBd20dV0p2vAb0kZaplps8lgOx7IWU0m+TVX6DsDUQwe43QFR3/QCRghdF5Y8avF8unEz1CsF53L/vsZdJIqT9Wq3jU0+HxwJJEHEO7zRq9QcD8ED0egFh5csQ0ECIlpZAQ9DvVLnZV1yrA8ruGXLjZDuhdUDC7dUsvMAG3XE+jQi74NvHWQPF8wriyPQwNvf2TeTAw0NIVUOoGKaRJHUEeYsfUaHtSBijduVGSFB/NNciCWRNoGqh63EJUuNra08HSC4jL6jZdGsiyLyaTF5uOUjC3N0dchrSEJ272KOePXn/jOQPgapWERsuSbfhgCc4rpQG3HQxnKjcFir2Gzxyq3P5Zs+4EB2peo2dvyJoJHMVWaqCfzlxZQrTJWWWwuS2Xsvtix2xLifMUGcraMIHMxGkxgvOy9FSPr7Gaq6XExv7Xc9ukdrtD1LVHSVKoBUsfvoHDR4DPOHroetqhB8ZXz6RsDJgv5LZXFrtINBu84N+BhA/5aXwv+R6/As/jcIHMzVqm6RfPANqNiKuAxRYhDB+HC5YIoXGmKe+d0ZISYMifVRcu0ZqzJ+cOlXUNpYPgTvrrYFSi6r5qxxzNwxU+HMzGJ0cGcnJGJUJv1cLAe14tw/o7zcV3U1UWx8loNejxgAibVtoMTSmlqVg3WYAPRLSVNB8qh5/NSncDS+YxbyjkpPN4j2BSm/YkEj2GgGkuqOger8sTCbaDAIEPx4QTkljrnok0B2gNsF7Qwn9bBBhL+NO4Uj0hbYo3C6YCNj21MeCoGIrTBzrjoWmoLa1klG18jIavF49bOVfxig7M7N64UV3QZHHsb3toXFr8iMha46DoFutK9NniSqn+HUTnWcLYdSwznZQwpRuFCfcuegfxSthb/wbKw20CEckJ6hMlzkk/3gdF9tqFAL6W0ewNnInAXYTawv3O2GxMQRT6Fp/1lH1Y2MX/Ipj/UGhJiX5IBbwkHOYFsk8G2I8NnSEqei6I83VK6yRSRiGm4RuSi/AwSnFTWyMhWHahMrg51d4OLKDh5KTG8ndNU8cs2pXpHAuTIksnzFp5es6NUBdUSYsbJZi0diAWpa6BbC5ZEXr3M76klPYMJR1XmVW4DXRrMb03WMBGrld5SNTQ0YbVsG4i7bxndfbLR3I0lhpNp97SOKX6yymubmIAnQ3RDyIOuYGy7zmXOZGqKveCRlSwH6hUxgWSjAA48smRF+ag/8H7Q5kxurU+3pyi91qEklRC04ysIEyGUzGl5dysRsgBBapplDT6ykgW6gyXCkpWbo7WLvoOl+IP5fF774sU61XfHuHHqjlP9l9OsTAtMuA2ga3bfeaBWNwF9nthlQGtotFGd2TqCM/ojU23vLNNYFIZqDAcay6lNRKFMH72xkksyoZWGGqfXTec6oTHGoToonF42YC1hmd9/z+xU+33ljm/jE9aB+9GYdbUhv8Q6SGrFI/ky8hTP3zWdmMrr87KhMzyZ8LpBhWh9XkZg45KvkVgLc1KTdjvuHBdb2tRfBbRNWIcGaYUHR9jEnDzx+3abmd65A1v3b66skWBaLzyTPU4wGR/FEvapKHU6M1STHK+9sEyahvJu0iGdWOp00zy1/AlXInEhNmctFqSBxeTQp5Jn6FjUz6YLkZhxuFeG6jexvG8x15h4aRSbEZRY9sShy5QxoiumZLiXI2VpZSoxIWSx6Aqm25+uUwefFm0u1krMiu0s5q1ZgsMSyNUwbW4LqEMX0uRSxLKGQoxgW7Lp6pgytqw8PZ5i06xExdSTnU8qIs+6kF624CYIUzGrPKEgadM1z2fq1hxcWEbBZjxzfa1Pq9Wehm/oeECeDmjzQzgAHLbnC+6XMWzEHKtBLouIWLHksukkLKVoUhw8oz4ETgQy4elBntFgwDu7/n1ud58mg83g3rr0/SeOwJf19CROWdel3MhU0MUtm96yz0pUwLt0TafOwlEWhicu802TOj7ELHMZwSFhCHJjwBBoGBgjgiCfG4OGLZw3t9SR6nhjwNKFNwYsXejPUHha9lwqPXIgIt4YFMygbm6pIVfYH7qwZJ4vvh0nUUg+fYYyNyeGgTjhhJ2AsYHEgIW5Y4uKG2ZeYTgBa9EhdHxZJ2BlzPTGYP7OK7za5H7UIOFaujEoLJxrvrUxFL3sOGwNCdI3BhxA3hgsVlO0Z+gXK6+5QWatQzcoLHjqBgxb3BgMVsCzL91ZesRf67hYr/Gy9pbjnpY0e7AQwjRN4sFKU9OytcHUrm0g1dMxWG7Ohl8PnnC8DVSb4eJ4ct1NQwWvcWNQcC3dGFQeeekGHXPO6aIaTPi5MeChOP5a14V1gfjSNqAVJdjtFF2FNcMvm7facPGtL+jhy6CfNpBANotHQ9w8NJPHppFl3pTEv0s3JHZYTOWd1oK2WIZj2nDGxQjJq+HszQAHcnflgSxWIRtV8b9tgElx0eJmKIlTFprstbJC/LCMYxvgILdpq4+jxG5F5sWM0G6dTKvx9ImkHLvF7Vttae66mPzSprJa96Ymt9G6ohPbAK9gSjmLmbmvlud3x8QAmgTfiwH06FAzA3J91doZX8HBdxijKs/yzMtqNNjJw91fwiFvBwR545oVdpiD1a8uE/8c3EZnhOfZkTwf/GXXGKZasM2LnMyAKyanOFkjrBRrIM6YQJSkaOZMzHVcWgQ4TODbGb1GiTw+PtsAhEMMl01g4jUB5t6gKclhVGwbCojRSKoH+qXqhicsewbYYzwNZI8t5Xb1hfNTo4pmA/UOdTqdXsfTHFPVBKKz9kjQa8SAdWGTVW87T+uK8pGp3NOO2wbyDPtMIswr6k0C5w4usNq8+WDA0S1deuw2LvneGBRMs9KlB0rLGGClS7doY/32MLA2azqnw0Dgn4kpu7/Ww1yJ9AWvvuFFlNMko84c1K+2QTPuBjLgrAuoXki+StYAcBg5sreodk2ztH8UnT/3Q2n84aw8WSqvJavnFG7qSSZVWxKzKY0DUVjzIjSGPx96n3oHOoCkA9GlQOdD0R2XO1f3jXOaKx7s2dQcMpNUswmY5oSOLC9T8LrQke3PJFyXxK/VW/YTs+2L6egnlsArNlQ8MT0/hBI+l0biHKiYkOzeg6hNlYzSUDn2zko8324B5bKq1aYylghDuqqqAUVkQWQ3HgcW4b2oyKMumkUCKeFAkGYt+4lnWAWPQKET3HFBJLArUEfZqwfuzYDOh26xxsJHiLHOWX6PEy+r5icLM9duMzg5h4uAU8SHcGUP0zkcWNwYWcmAXCofNhe4YZz0Gn/++j0BgqHErVQRioeHUW8KI8VJFaF5KE4kj0r9oPU2rSWetQ9iWMbn/V9Y/l2XUnuuE8AqeBJjmQG8TP091bqyJvQXF6KMBXghjL6MGnYYJmXhHQv2LWtXuNCvr6I1Vp42vixf44kWy8bKJ2yLXH7eM36edX8diCV2aDAyt7INVsZc8Pz7/Q9//8Nvf/7nv/zpL3/96z9++/WX//z5/f//6Zdff/6PX3/5r7/98es//ePPf/j7z/vf/i8=);lineShape=1;" parent="1" vertex="1">
          <mxGeometry x="285.56217011498006" y="163.23806034853928" width="9.439088514326933" height="11.245633072301567" as="geometry" />
        </mxCell>
        <mxCell id="caSavUd0nFzrXltBbQJo-1" value="" style="ellipse;whiteSpace=wrap;html=1;" vertex="1" parent="1">
          <mxGeometry x="150" y="319.25" width="20" height="12.5" as="geometry" />
        </mxCell>
      </root>
    </mxGraphModel>
  </diagram>
</mxfile>
